<?xml version="1.0" encoding="utf-8"?>
<!-- Generator: Adobe Illustrator 23.0.1, SVG Export Plug-In . SVG Version: 6.00 Build 0)  -->
<svg version="1.1" id="Warstwa_1" xmlns="http://www.w3.org/2000/svg" xmlns:xlink="http://www.w3.org/1999/xlink" x="0px" y="0px"
	 viewBox="0 0 1000 1000" style="enable-background:new 0 0 1000 1000;" xml:space="preserve">
<style type="text/css">
	.st0{fill:url(#SVGID_1_);stroke:#000000;stroke-width:3;stroke-miterlimit:10;}
	.st1{fill:url(#SVGID_2_);stroke:#000000;stroke-width:3;stroke-miterlimit:10;}
	.st2{fill:url(#SVGID_3_);stroke:#000000;stroke-width:3;stroke-miterlimit:10;}
	.st3{fill:url(#SVGID_4_);stroke:#000000;stroke-width:3;stroke-miterlimit:10;}
	.st4{fill:none;}
	.st5{fill:#FFFFFF;}
	.st6{font-family:'Impact';}
	.st7{font-size:117.1152px;}
	.st8{fill:none;stroke:#000000;stroke-width:3;stroke-miterlimit:10;}
	.st9{fill:#E03636;}
	.st10{font-size:101.9061px;}
	.st11{fill:none;stroke:#000000;stroke-miterlimit:10;}
	.st12{fill:#020101;}
	.st13{fill:#B70F0F;}
</style>
<radialGradient id="SVGID_1_" cx="453.3499" cy="415.1529" r="413.8375" gradientTransform="matrix(1 0 0 0.8228 0 132.3965)" gradientUnits="userSpaceOnUse">
	<stop  offset="0.5426" style="stop-color:#000000"/>
	<stop  offset="1" style="stop-color:#990808"/>
</radialGradient>
<path class="st0" d="M727.3,477.6c0-2,0-3.9,0-5.9c0-22.4-2.2-44.2-6.2-65.2l58.2-40.6l-13.9-42.5l-67.5,9.6
	c-8-17.9-17.6-34.7-28.5-50.4l39-70.3l-29.2-31.2L618.6,226c-9.2-7.9-19.1-15.3-29.2-21.8l9.2-80.2l-38.4-14.9l-36.1,64.6
	c-13.7-4.1-27.8-7.2-42.4-9.1L466.3,82h-40.4l-17.2,84.4c-15.3,2.7-30.1,6.7-44.4,12l-41.8-64.8l-37,18.4l14.3,81.3
	c-9.9,7.2-19.4,15.3-28.4,23.9l-62.2-38.8l-26.6,34.1l41.4,63.4c-3.3,5.3-6.5,10.8-9.5,16.5c-5.1,9.4-9.6,19.1-13.8,29
	c-10.9,26.1-18.5,54.1-22.4,83.6c-0.9,6.7-1.6,13.3-2,20c-0.6,8.6-1,17.4-1,26.3c0,4.5,0.1,8.9,0.3,13.3l-62.2,29.9l8,44.4l65.7,1.8
	c5.4,20.2,12.7,39.4,21.5,57.7l-49.9,60.8l23.5,36.9l68.7-32.2c9.7,11.6,20.4,22.2,31.6,32l-24.9,76.4l34.3,23.9l52.9-59.7
	c11.4,5.3,23.2,9.8,35.3,13.5l8.4,91.1l40.3,4.7l26.2-85.6c11.9-0.2,23.5-1.2,34.9-3l39.4,77.3l38.5-13.9l-6.7-85.7
	c10-4.9,19.7-10.5,29.1-16.5l59.4,56.9l32-27.6l-32.9-80.3c1-1.2,1.9-2.3,2.9-3.3c2.7-3.3,5.3-6.5,8-9.8
	c18.5-23.8,33.8-50.7,45.1-80.2c1.4-3.7,2.8-7.5,4.2-11.2c3-8.8,5.7-17.7,8-26.7l71.6-6.9l4.8-44.9L727.3,477.6z M672.3,562.9
	c-0.6,2-1.4,4.1-2.2,6.1c-12,34-30.3,64.5-53,89.7c-1.3,1.4-2.7,2.8-3.9,4.3c-42.2,44.9-99.1,72.2-161.8,72.2
	c-130,0-235.4-118-235.4-263.6c0-2.4,0-4.9,0.1-7.1c0.1-6.1,0.5-12.2,1-18.1c2.7-30.8,9.9-59.9,21.1-86.6
	c3.9-9.4,8.4-18.4,13.2-27.1c41.5-75,115.6-124.7,200-124.7c130,0,235.4,118,235.4,263.6C686.8,503.7,681.8,534.6,672.3,562.9z"/>
<linearGradient id="SVGID_2_" gradientUnits="userSpaceOnUse" x1="40.5" y1="367.4425" x2="201.2" y2="367.4425">
	<stop  offset="2.645503e-03" style="stop-color:#494949"/>
	<stop  offset="0.2513" style="stop-color:#9B9B9B"/>
	<stop  offset="0.5289" style="stop-color:#757575"/>
	<stop  offset="0.6974" style="stop-color:#5B5B5B"/>
	<stop  offset="0.9153" style="stop-color:#AAAAAA"/>
</linearGradient>
<path class="st1" d="M172.3,329.8c0,0,0-0.2,0.1-0.2l-26.7-12.9c0,0,0,0,0-0.2l-29.1-14.2c0,0,0-0.2,0.1-0.2l-30.3-14.6l-45.9,93.1
	l29.1,14.2l-0.1,0.2l26.7,12.9l0,0l29.1,14.2l-0.1,0.2l51.6,25.1c0.5-6.8,1.3-13.5,2-20c3.9-29.5,11.6-57.5,22.4-83.6L172.3,329.8z
	 M108.7,387.9c-14.6,0-26.5-13.2-26.5-29.6c0-16.3,11.9-29.6,26.5-29.6s26.5,13.2,26.5,29.6S123.3,387.9,108.7,387.9z"/>
<linearGradient id="SVGID_3_" gradientUnits="userSpaceOnUse" x1="216" y1="509.2585" x2="670.2" y2="509.2585">
	<stop  offset="0" style="stop-color:#D3D3D3"/>
	<stop  offset="0.2143" style="stop-color:#515151"/>
	<stop  offset="0.3889" style="stop-color:#C1C1C1"/>
	<stop  offset="0.6043" style="stop-color:#757575"/>
	<stop  offset="0.7328" style="stop-color:#515151"/>
	<stop  offset="0.955" style="stop-color:#A0A0A0"/>
</linearGradient>
<path class="st2" d="M670.2,569c-12,34-30.3,64.5-53,89.7L227.3,470l-11.3-5.5c0.1-6.1,0.5-12.2,1-18.1c2.7-30.8,9.9-59.9,21.1-86.6
	l22.9,11L670.2,569z"/>
<linearGradient id="SVGID_4_" gradientUnits="userSpaceOnUse" x1="659.6" y1="730.0482" x2="1000" y2="730.0482">
	<stop  offset="0" style="stop-color:#474747"/>
	<stop  offset="0.2354" style="stop-color:#565656"/>
	<stop  offset="0.4894" style="stop-color:#A8A8A8"/>
	<stop  offset="0.7381" style="stop-color:#B5B5B5"/>
	<stop  offset="1" style="stop-color:#4C4C4C"/>
</linearGradient>
<path class="st3" d="M921,688.5l-54.4,29.8l16.5,76.5l102.5,27.9c0.1,1.7,0.6,3.3,1.5,4.4c-28.9,42.4-85.7,51.8-130.9,20
	c-33.7-23.7-52-63.6-50.3-102.3l0,0l-61.5-29.6l-34.3-16.5l-50.5-24.4c18.5-23.8,33.8-50.7,45.1-80.2l39,18.7l32.5,15.6l75.4,36.3
	c30-17.7,69.4-16.5,102.5,6.8c23,16.1,38.9,40,45.9,65.6c-0.1,0.2-0.3,0.6-0.4,1L921,688.5z"/>
<polygon class="st4" points="186.6,444.5 248.2,285.6 730,519.3 668.5,678.3 "/>
<text transform="matrix(0.8332 0.4037 -0.3608 0.9327 214.7529 371.9454)" class="st5 st6 st7">Auto serwis</text>
<text transform="matrix(0.8332 0.4037 -0.3608 0.9327 214.7529 371.9454)" class="st8 st6 st7">Auto serwis</text>
<polygon class="st4" points="245.2,622.4 277.9,529.8 580.2,663.7 547.6,756.2 "/>
<text transform="matrix(0.8383 0.3866 -0.3453 0.9385 258.7829 588.8969)" class="st9 st6 st10">Wińscy</text>
<text transform="matrix(0.8383 0.3866 -0.3453 0.9385 258.7829 588.8969)" class="st11 st6 st10">Wińscy</text>
<path class="st12" d="M919.5,994.9L919.5,994.9L919.5,994.9L919.5,994.9z"/>
<path class="st13" d="M986.4,950.1c-0.9-1.4-1.5-3.3-1.6-5.6L986.4,950.1z"/>
<path class="st13" d="M986.4,950.1c-0.9-1.4-1.5-3.3-1.6-5.6L986.4,950.1z"/>
</svg>
